<?xml version="1.0" encoding="UTF-8"?>
<svg xmlns="http://www.w3.org/2000/svg" xmlns:xlink="http://www.w3.org/1999/xlink" id="Layer_2" data-name="Layer 2" viewBox="0 0 307.6 632.53">
  <defs>
    <style>
      .cls-1 {
        fill: none;
      }

      .cls-2 {
        stroke: #000;
        stroke-miterlimit: 10;
        stroke-width: 4px;
      }

      .cls-3 {
        clip-path: url(#clippath);
      }
    </style>
    <clipPath id="clippath">
      <rect class="cls-1" x="69.12" y="25.08" width="169.36" height="157.19" transform="translate(-26.9 61.84) rotate(-20.95)"></rect>
    </clipPath>
  </defs>
  <g id="Layer_1-2" data-name="Layer 1">
    <g>
      <g>
        <path d="M16.4,439.95H1.6v-70.96h40.65v12.32h-25.84v18.29h24.05v12.32h-24.05v28.03Z"></path>
        <path d="M86.76,380.62c-2.85,0-5.42.55-7.7,1.64s-4.22,2.68-5.81,4.77c-1.59,2.09-2.8,4.61-3.63,7.55-.83,2.95-1.24,6.31-1.24,10.09,0,4.97.7,9.23,2.09,12.77,1.39,3.54,3.49,6.25,6.31,8.1,2.82,1.86,6.34,2.78,10.58,2.78,3.11,0,6.11-.36,8.99-1.09,2.88-.73,5.78-1.66,8.7-2.78v12.92c-2.98,1.26-6.01,2.17-9.09,2.73-3.08.56-6.51.84-10.29.84-7.55,0-13.76-1.51-18.63-4.52-4.87-3.01-8.48-7.27-10.83-12.77-2.35-5.5-3.53-11.86-3.53-19.08,0-5.37.75-10.29,2.24-14.76,1.49-4.47,3.69-8.33,6.61-11.58,2.91-3.25,6.49-5.76,10.73-7.55,4.24-1.79,9.14-2.68,14.71-2.68,3.51,0,7.07.38,10.68,1.14,3.61.76,7.04,1.94,10.29,3.53l-4.97,12.12c-2.38-1.13-4.92-2.1-7.6-2.93-2.68-.83-5.55-1.24-8.6-1.24Z"></path>
        <path d="M168.25,368.99c9.74,0,16.83,1.44,21.27,4.32,4.44,2.88,6.66,7.34,6.66,13.37,0,2.98-.55,5.55-1.64,7.7-1.09,2.15-2.55,3.89-4.37,5.22-1.82,1.33-3.83,2.22-6.01,2.68v.5c2.32.46,4.54,1.29,6.66,2.48,2.12,1.19,3.84,2.92,5.17,5.17,1.32,2.25,1.99,5.23,1.99,8.94,0,4.31-1.06,8-3.18,11.08-2.12,3.08-5.12,5.43-8.99,7.06-3.88,1.62-8.53,2.44-13.96,2.44h-26.53v-70.96h22.96ZM169.05,397.41c4.37,0,7.39-.79,9.04-2.39,1.66-1.59,2.48-3.68,2.48-6.26,0-2.72-.98-4.72-2.93-6.01-1.95-1.29-5.05-1.94-9.29-1.94h-7.85v16.6h8.55ZM160.5,408.84v19.08h9.64c4.5,0,7.64-.91,9.39-2.73,1.75-1.82,2.63-4.16,2.63-7.01,0-1.79-.38-3.38-1.14-4.77-.76-1.39-2.05-2.5-3.88-3.33-1.82-.83-4.32-1.24-7.5-1.24h-9.14Z"></path>
        <path d="M238.42,439.95h-32.3v-8.55l8.65-3.98v-45.91l-8.65-3.98v-8.55h32.3v8.55l-8.65,3.98v45.91l8.65,3.98v8.55Z"></path>
        <path d="M277.47,400.09h28.12v36.77c-3.71,1.26-7.57,2.25-11.58,2.98-4.01.73-8.56,1.09-13.66,1.09-7.02,0-13-1.39-17.94-4.17-4.94-2.78-8.68-6.89-11.23-12.32-2.55-5.43-3.83-12.12-3.83-20.08,0-7.42,1.44-13.85,4.32-19.28,2.88-5.43,7.07-9.64,12.57-12.62,5.5-2.98,12.22-4.47,20.17-4.47,3.78,0,7.49.4,11.13,1.19,3.64.8,6.96,1.86,9.94,3.18l-4.97,12.02c-2.19-1.13-4.67-2.05-7.45-2.78-2.78-.73-5.7-1.09-8.75-1.09-4.37,0-8.17.99-11.38,2.98-3.21,1.99-5.7,4.79-7.45,8.4-1.76,3.61-2.63,7.87-2.63,12.77,0,4.64.63,8.75,1.89,12.32,1.26,3.58,3.25,6.38,5.96,8.4,2.72,2.02,6.26,3.03,10.63,3.03,2.12,0,3.93-.1,5.42-.3s2.86-.43,4.12-.7v-14.81h-13.42v-12.52Z"></path>
      </g>
      <g>
        <path d="M18.64,540.68H2v-79.72h45.67v13.85h-29.03v20.55h27.02v13.85h-27.02v31.49Z"></path>
        <path d="M135.32,500.71c0,6.18-.76,11.78-2.29,16.8-1.53,5.02-3.83,9.36-6.92,13.01-3.09,3.65-7.02,6.44-11.78,8.37-4.76,1.93-10.42,2.9-16.97,2.9s-12.11-.97-16.92-2.9c-4.8-1.93-8.75-4.73-11.84-8.37-3.09-3.65-5.4-7.98-6.92-13.01-1.53-5.02-2.29-10.66-2.29-16.92,0-8.26,1.36-15.45,4.08-21.55,2.72-6.1,6.88-10.85,12.51-14.24,5.62-3.39,12.78-5.08,21.49-5.08s15.76,1.69,21.38,5.08c5.62,3.39,9.77,8.15,12.45,14.29,2.68,6.14,4.02,13.34,4.02,21.61ZM77.37,500.71c0,5.51.69,10.27,2.07,14.29,1.38,4.02,3.55,7.09,6.53,9.21,2.98,2.12,6.77,3.18,11.39,3.18s8.62-1.06,11.56-3.18c2.94-2.12,5.08-5.19,6.42-9.21,1.34-4.02,2.01-8.78,2.01-14.29,0-8.34-1.53-14.89-4.58-19.65-3.05-4.76-8.15-7.15-15.3-7.15-4.69,0-8.52,1.08-11.5,3.24-2.98,2.16-5.16,5.23-6.53,9.21-1.38,3.98-2.07,8.77-2.07,14.35Z"></path>
        <path d="M223.64,500.71c0,6.18-.76,11.78-2.29,16.8-1.53,5.02-3.83,9.36-6.92,13.01-3.09,3.65-7.02,6.44-11.78,8.37-4.76,1.93-10.42,2.9-16.97,2.9s-12.11-.97-16.92-2.9c-4.8-1.93-8.75-4.73-11.84-8.37-3.09-3.65-5.4-7.98-6.92-13.01-1.53-5.02-2.29-10.66-2.29-16.92,0-8.26,1.36-15.45,4.08-21.55,2.72-6.1,6.88-10.85,12.51-14.24,5.62-3.39,12.78-5.08,21.49-5.08s15.76,1.69,21.38,5.08c5.62,3.39,9.77,8.15,12.45,14.29,2.68,6.14,4.02,13.34,4.02,21.61ZM165.69,500.71c0,5.51.69,10.27,2.07,14.29,1.38,4.02,3.55,7.09,6.53,9.21,2.98,2.12,6.77,3.18,11.39,3.18s8.62-1.06,11.56-3.18c2.94-2.12,5.08-5.19,6.42-9.21,1.34-4.02,2.01-8.78,2.01-14.29,0-8.34-1.53-14.89-4.58-19.65-3.05-4.76-8.15-7.15-15.3-7.15-4.69,0-8.52,1.08-11.5,3.24-2.98,2.16-5.16,5.23-6.53,9.21-1.38,3.98-2.07,8.77-2.07,14.35Z"></path>
        <path d="M305.6,499.48c0,9.16-1.71,16.79-5.14,22.89-3.42,6.11-8.25,10.68-14.46,13.73-6.22,3.05-13.64,4.58-22.28,4.58h-24.34v-79.72h26.35c8.41,0,15.58,1.47,21.49,4.41,5.92,2.94,10.46,7.28,13.62,13.01,3.16,5.73,4.75,12.77,4.75,21.1ZM287.73,500.15c0-5.73-.84-10.46-2.51-14.18-1.67-3.72-4.19-6.49-7.54-8.32-3.35-1.82-7.48-2.74-12.39-2.74h-8.82v51.7h7.15c8.19,0,14.25-2.19,18.2-6.59,3.94-4.39,5.92-11.02,5.92-19.87Z"></path>
      </g>
      <path class="cls-2" d="M266.27,630.53H41.33c-15.78,0-29.44-10.71-33.23-26.02l-2.2-8.93c-1.29-5.22-.12-10.65,3.19-14.88,3.32-4.23,8.3-6.66,13.68-6.66h262.06c5.38,0,10.36,2.43,13.68,6.66,3.31,4.24,4.48,9.66,3.19,14.88l-2.2,8.93c-3.78,15.32-17.44,26.02-33.23,26.02M22.77,584.27c-2.21,0-4.26,1-5.62,2.74-1.36,1.74-1.84,3.97-1.31,6.12l2.2,8.93c2.65,10.74,12.22,18.24,23.29,18.24h224.95c11.06,0,20.64-7.5,23.29-18.24l2.2-8.93c.53-2.14.05-4.38-1.31-6.12-1.37-1.74-3.41-2.74-5.62-2.74H22.77Z"></path>
      <g class="cls-3">
        <path d="M151.68,187.29c-1.22.47-2.57.58-3.9.28-2.05-.47-50.52-12.03-70.67-49.14-20.15-37.12-3.45-84.06-2.73-86.03.9-2.47,3.16-4.18,5.8-4.39,2.63-.2,5.12,1.17,6.38,3.48l67.99,125.2c.47.55.85,1.2,1.12,1.91,1.33,3.47-.71,7.28-3.92,8.66l-.06.02ZM82.9,72.82c-2.94,15.47-4.74,39.49,5.97,59.21,10.75,19.8,31.86,31.35,46.42,37.29l-52.39-96.5Z"></path>
        <path d="M142.96,172.23s-.06-.06-.1-.08c-13.61-4.62-41.16-16.51-53.98-40.11-13.41-24.7-7.2-56.15-3.71-69.09,12.75,4.1,42.46,15.96,55.92,40.75,1.76,3.24,3.17,6.59,4.31,10,.25-.6.53-1.18.84-1.77.94-1.82,1.78-3.64,2.56-5.53,1.31-3.15,2.59-6.32,3.82-9.51-20.29-36.77-68.39-48.24-70.43-48.71-3.29-.76-6.64,1.06-7.8,4.23-.72,1.98-17.42,48.92,2.73,86.04,20.15,37.1,68.62,48.67,70.67,49.14,1.34.31,2.69.19,3.9-.27,1.76-.67,3.22-2.08,3.9-3.97.09-.25.44-1.22.94-2.8-5.07-1.44-9.57-5.07-13.56-8.29Z"></path>
        <path d="M163.4,184.16h0c-5.84,2.24-9.68,3.28-9.84,3.32-3.3.88-6.72-.86-7.97-4.03-.76-1.95-18.49-48.29.82-86.08,14.04-27.46,43.39-41.99,59.63-48.21,5.85-2.24,9.7-3.27,9.86-3.31,3.29-.89,6.72.86,7.97,4.03.76,1.95,18.5,48.28-.82,86.07-14.05,27.46-43.4,42-59.64,48.22M156.1,172.59c.78-.28,1.62-.59,2.51-.93h0c14.46-5.54,40.5-18.33,52.51-41.81,12.85-25.13,6-56.25,2.23-69.12-13.36,4.75-42.26,17.79-55.02,42.72-12.89,25.22-6.03,56.29-2.24,69.13"></path>
        <path d="M220.71,46.98c1.08.74,1.94,1.79,2.44,3.06.77,1.96,18.67,48.46-.52,86.07-19.2,37.62-67.35,50.41-69.39,50.93-2.55.66-5.23-.24-6.9-2.3-1.65-2.05-1.94-4.88-.74-7.23l64.75-126.9c.19-.69.51-1.37.94-2.01,2.11-3.06,6.4-3.54,9.36-1.67l.06.04ZM165.25,168.45c14.42-6.34,35.24-18.44,45.44-38.43,10.24-20.07,7.82-44.01,4.48-59.38l-49.92,97.8Z"></path>
      </g>
      <g>
        <path class="cls-2" d="M278.64,336.4H28.95c-7.96,0-15.46-3.5-20.58-9.59-5.19-6.18-7.36-14.31-5.95-22.29,12.92-73.55,76.58-126.94,151.38-126.94s138.46,53.39,151.38,126.94c1.4,7.99-.77,16.12-5.96,22.29-5.12,6.09-12.62,9.59-20.58,9.59M153.8,187.81c-69.82,0-129.24,49.82-141.3,118.47-.88,5.01.48,10.09,3.71,13.94,3.16,3.77,7.81,5.93,12.74,5.93h249.7c4.93,0,9.57-2.16,12.74-5.93,3.24-3.86,4.59-8.94,3.71-13.94-12.06-68.65-71.48-118.47-141.3-118.47"></path>
        <path class="cls-2" d="M101.7,242.62c0,3.94-4.76,7.13-10.63,7.13s-10.63-3.19-10.63-7.13,4.76-7.13,10.63-7.13,10.63,3.19,10.63,7.13"></path>
        <path class="cls-2" d="M135.69,218.91c0,3.94-4.76,7.13-10.63,7.13s-10.63-3.19-10.63-7.13,4.76-7.13,10.63-7.13,10.63,3.19,10.63,7.13"></path>
        <path class="cls-2" d="M135.69,259.67c0,3.94-4.76,7.13-10.63,7.13s-10.63-3.19-10.63-7.13,4.76-7.13,10.63-7.13,10.63,3.19,10.63,7.13"></path>
        <path class="cls-2" d="M197.84,218.91c0,3.94-4.76,7.13-10.63,7.13s-10.63-3.19-10.63-7.13,4.76-7.13,10.63-7.13,10.63,3.19,10.63,7.13"></path>
        <path class="cls-2" d="M197.84,259.67c0,3.94-4.76,7.13-10.63,7.13s-10.63-3.19-10.63-7.13,4.76-7.13,10.63-7.13,10.63,3.19,10.63,7.13"></path>
        <path class="cls-2" d="M161.86,238.06c0,3.94-4.76,7.13-10.63,7.13s-10.63-3.19-10.63-7.13,4.76-7.13,10.63-7.13,10.63,3.19,10.63,7.13"></path>
        <path class="cls-2" d="M227.74,238.06c0,3.94-4.76,7.13-10.63,7.13s-10.63-3.19-10.63-7.13,4.76-7.13,10.63-7.13,10.63,3.19,10.63,7.13"></path>
      </g>
    </g>
  </g>
</svg>
