<?xml version="1.0" encoding="UTF-8"?>
<svg xmlns="http://www.w3.org/2000/svg" xmlns:xlink="http://www.w3.org/1999/xlink" id="Layer_2" data-name="Layer 2" viewBox="0 0 307.6 614.53">
  <defs>
    <style>
      .cls-1 {
        fill: none;
      }

      .cls-2 {
        stroke: #fff;
        stroke-miterlimit: 10;
        stroke-width: 4px;
      }

      .cls-2, .cls-3 {
        fill: #fff;
      }

      .cls-4 {
        clip-path: url(#clippath);
      }
    </style>
    <clipPath id="clippath">
      <rect class="cls-1" x="69.12" y="25.08" width="169.36" height="157.19" transform="translate(-26.9 61.84) rotate(-20.95)"></rect>
    </clipPath>
  </defs>
  <g id="Layer_1-2" data-name="Layer 1">
    <g>
      <g>
        <path class="cls-3" d="M50.25,423.25h-11.18v-53.56h30.68v9.3h-19.5v13.8h18.15v9.3h-18.15v21.15Z"></path>
        <path class="cls-3" d="M103.35,378.46c-2.15,0-4.09.41-5.81,1.24s-3.19,2.03-4.39,3.6c-1.2,1.58-2.11,3.48-2.74,5.7-.63,2.23-.94,4.76-.94,7.61,0,3.75.53,6.96,1.58,9.64,1.05,2.68,2.64,4.71,4.76,6.11,2.12,1.4,4.79,2.1,7.99,2.1,2.35,0,4.61-.27,6.79-.83,2.18-.55,4.36-1.25,6.56-2.1v9.75c-2.25.95-4.54,1.64-6.86,2.06-2.33.42-4.91.64-7.76.64-5.7,0-10.39-1.14-14.06-3.41-3.68-2.27-6.4-5.49-8.18-9.64-1.78-4.15-2.66-8.95-2.66-14.4,0-4.05.56-7.76,1.69-11.14s2.79-6.29,4.99-8.74c2.2-2.45,4.9-4.35,8.1-5.7,3.2-1.35,6.9-2.03,11.1-2.03,2.65,0,5.34.29,8.06.86,2.72.58,5.31,1.46,7.76,2.66l-3.75,9.15c-1.8-.85-3.71-1.59-5.74-2.21-2.03-.62-4.19-.94-6.49-.94Z"></path>
        <path class="cls-3" d="M164.86,369.69c7.35,0,12.7,1.09,16.05,3.26,3.35,2.18,5.03,5.54,5.03,10.09,0,2.25-.41,4.19-1.24,5.81-.83,1.63-1.93,2.94-3.3,3.94-1.38,1-2.89,1.68-4.54,2.03v.38c1.75.35,3.42.98,5.03,1.88,1.6.9,2.9,2.2,3.9,3.9,1,1.7,1.5,3.95,1.5,6.75,0,3.25-.8,6.04-2.4,8.36-1.6,2.33-3.86,4.1-6.79,5.33-2.93,1.23-6.44,1.84-10.54,1.84h-20.03v-53.56h17.33ZM165.46,391.14c3.3,0,5.58-.6,6.83-1.8,1.25-1.2,1.88-2.78,1.88-4.73,0-2.05-.74-3.56-2.21-4.54-1.48-.97-3.81-1.46-7.01-1.46h-5.93v12.53h6.45ZM159.01,399.77v14.4h7.28c3.4,0,5.76-.69,7.09-2.06,1.32-1.38,1.99-3.14,1.99-5.29,0-1.35-.29-2.55-.86-3.6-.58-1.05-1.55-1.89-2.93-2.51-1.38-.62-3.26-.94-5.66-.94h-6.9Z"></path>
        <path class="cls-3" d="M217.82,423.25h-24.38v-6.45l6.53-3v-34.65l-6.53-3v-6.45h24.38v6.45l-6.53,3v34.65l6.53,3v6.45Z"></path>
        <path class="cls-3" d="M247.3,393.17h21.23v27.75c-2.8.95-5.71,1.7-8.74,2.25-3.03.55-6.46.83-10.31.83-5.3,0-9.81-1.05-13.54-3.15-3.73-2.1-6.55-5.2-8.48-9.3-1.93-4.1-2.89-9.15-2.89-15.15,0-5.6,1.09-10.45,3.26-14.55,2.18-4.1,5.34-7.28,9.49-9.53,4.15-2.25,9.23-3.38,15.23-3.38,2.85,0,5.65.3,8.4.9,2.75.6,5.25,1.4,7.5,2.4l-3.75,9.08c-1.65-.85-3.53-1.55-5.63-2.1-2.1-.55-4.3-.83-6.6-.83-3.3,0-6.16.75-8.59,2.25-2.43,1.5-4.3,3.61-5.63,6.34-1.33,2.73-1.99,5.94-1.99,9.64,0,3.5.47,6.6,1.43,9.3.95,2.7,2.45,4.81,4.5,6.34,2.05,1.53,4.73,2.29,8.03,2.29,1.6,0,2.96-.08,4.09-.23s2.16-.32,3.11-.52v-11.18h-10.13v-9.45Z"></path>
      </g>
      <g>
        <path class="cls-3" d="M18.64,523.68H2v-79.72h45.67v13.85h-29.03v20.55h27.02v13.85h-27.02v31.49Z"></path>
        <path class="cls-3" d="M135.32,483.71c0,6.18-.76,11.78-2.29,16.8-1.53,5.02-3.83,9.36-6.92,13.01-3.09,3.65-7.02,6.44-11.78,8.37-4.76,1.93-10.42,2.9-16.97,2.9s-12.11-.97-16.92-2.9c-4.8-1.93-8.75-4.73-11.84-8.37-3.09-3.65-5.4-7.98-6.92-13.01-1.53-5.02-2.29-10.66-2.29-16.92,0-8.26,1.36-15.45,4.08-21.55,2.72-6.1,6.88-10.85,12.51-14.24,5.62-3.39,12.78-5.08,21.49-5.08s15.76,1.69,21.38,5.08c5.62,3.39,9.77,8.15,12.45,14.29,2.68,6.14,4.02,13.34,4.02,21.61ZM77.37,483.71c0,5.51.69,10.27,2.07,14.29,1.38,4.02,3.55,7.09,6.53,9.21,2.98,2.12,6.77,3.18,11.39,3.18s8.62-1.06,11.56-3.18c2.94-2.12,5.08-5.19,6.42-9.21,1.34-4.02,2.01-8.78,2.01-14.29,0-8.34-1.53-14.89-4.58-19.65-3.05-4.76-8.15-7.15-15.3-7.15-4.69,0-8.52,1.08-11.5,3.24-2.98,2.16-5.16,5.23-6.53,9.21-1.38,3.98-2.07,8.77-2.07,14.35Z"></path>
        <path class="cls-3" d="M223.64,483.71c0,6.18-.76,11.78-2.29,16.8-1.53,5.02-3.83,9.36-6.92,13.01-3.09,3.65-7.02,6.44-11.78,8.37-4.76,1.93-10.42,2.9-16.97,2.9s-12.11-.97-16.92-2.9c-4.8-1.93-8.75-4.73-11.84-8.37-3.09-3.65-5.4-7.98-6.92-13.01-1.53-5.02-2.29-10.66-2.29-16.92,0-8.26,1.36-15.45,4.08-21.55,2.72-6.1,6.88-10.85,12.51-14.24,5.62-3.39,12.78-5.08,21.49-5.08s15.76,1.69,21.38,5.08c5.62,3.39,9.77,8.15,12.45,14.29,2.68,6.14,4.02,13.34,4.02,21.61ZM165.69,483.71c0,5.51.69,10.27,2.07,14.29,1.38,4.02,3.55,7.09,6.53,9.21,2.98,2.12,6.77,3.18,11.39,3.18s8.62-1.06,11.56-3.18c2.94-2.12,5.08-5.19,6.42-9.21,1.34-4.02,2.01-8.78,2.01-14.29,0-8.34-1.53-14.89-4.58-19.65-3.05-4.76-8.15-7.15-15.3-7.15-4.69,0-8.52,1.08-11.5,3.24-2.98,2.16-5.16,5.23-6.53,9.21-1.38,3.98-2.07,8.77-2.07,14.35Z"></path>
        <path class="cls-3" d="M305.6,482.48c0,9.16-1.71,16.79-5.14,22.89-3.42,6.11-8.25,10.68-14.46,13.73-6.22,3.05-13.64,4.58-22.28,4.58h-24.34v-79.72h26.35c8.41,0,15.58,1.47,21.49,4.41,5.92,2.94,10.46,7.28,13.62,13.01,3.16,5.73,4.75,12.77,4.75,21.1ZM287.73,483.15c0-5.73-.84-10.46-2.51-14.18-1.67-3.72-4.19-6.49-7.54-8.32-3.35-1.82-7.48-2.74-12.39-2.74h-8.82v51.7h7.15c8.19,0,14.25-2.19,18.2-6.59,3.94-4.39,5.92-11.02,5.92-19.87Z"></path>
      </g>
      <path class="cls-2" d="M266.27,612.53H41.33c-15.78,0-29.44-10.71-33.23-26.02l-2.2-8.93c-1.29-5.22-.12-10.65,3.19-14.88,3.32-4.23,8.3-6.66,13.68-6.66h262.06c5.38,0,10.36,2.43,13.68,6.66,3.31,4.24,4.48,9.66,3.19,14.88l-2.2,8.93c-3.78,15.32-17.44,26.02-33.23,26.02M22.77,566.27c-2.21,0-4.26,1-5.62,2.74-1.36,1.74-1.84,3.97-1.31,6.12l2.2,8.93c2.65,10.74,12.22,18.24,23.29,18.24h224.95c11.06,0,20.64-7.5,23.29-18.24l2.2-8.93c.53-2.14.05-4.38-1.31-6.12-1.37-1.74-3.41-2.74-5.62-2.74H22.77Z"></path>
      <g class="cls-4">
        <path class="cls-3" d="M151.68,187.29c-1.22.47-2.57.58-3.9.28-2.05-.47-50.52-12.03-70.67-49.14-20.15-37.12-3.45-84.06-2.73-86.03.9-2.47,3.16-4.18,5.8-4.39,2.63-.2,5.12,1.17,6.38,3.48l67.99,125.2c.47.55.85,1.2,1.12,1.91,1.33,3.47-.71,7.28-3.92,8.66l-.06.02ZM82.9,72.82c-2.94,15.47-4.74,39.49,5.97,59.21,10.75,19.8,31.86,31.35,46.42,37.29l-52.39-96.5Z"></path>
        <path class="cls-3" d="M142.96,172.23s-.06-.06-.1-.08c-13.61-4.62-41.16-16.51-53.98-40.11-13.41-24.7-7.2-56.15-3.71-69.09,12.75,4.1,42.46,15.96,55.92,40.75,1.76,3.24,3.17,6.59,4.31,10,.25-.6.53-1.18.84-1.77.94-1.82,1.78-3.64,2.56-5.53,1.31-3.15,2.59-6.32,3.82-9.51-20.29-36.77-68.39-48.24-70.43-48.71-3.29-.76-6.64,1.06-7.8,4.23-.72,1.98-17.42,48.92,2.73,86.04,20.15,37.1,68.62,48.67,70.67,49.14,1.34.31,2.69.19,3.9-.27,1.76-.67,3.22-2.08,3.9-3.97.09-.25.44-1.22.94-2.8-5.07-1.44-9.57-5.07-13.56-8.29Z"></path>
        <path class="cls-3" d="M163.4,184.16h0c-5.84,2.24-9.68,3.28-9.84,3.32-3.3.88-6.72-.86-7.97-4.03-.76-1.95-18.49-48.29.82-86.08,14.04-27.46,43.39-41.99,59.63-48.21,5.85-2.24,9.7-3.27,9.86-3.31,3.29-.89,6.72.86,7.97,4.03.76,1.95,18.5,48.28-.82,86.07-14.05,27.46-43.4,42-59.64,48.22M156.1,172.59c.78-.28,1.62-.59,2.51-.93h0c14.46-5.54,40.5-18.33,52.51-41.81,12.85-25.13,6-56.25,2.23-69.12-13.36,4.75-42.26,17.79-55.02,42.72-12.89,25.22-6.03,56.29-2.24,69.13"></path>
        <path class="cls-3" d="M220.71,46.98c1.08.74,1.94,1.79,2.44,3.06.77,1.96,18.67,48.46-.52,86.07-19.2,37.62-67.35,50.41-69.39,50.93-2.55.66-5.23-.24-6.9-2.3-1.65-2.05-1.94-4.88-.74-7.23l64.75-126.9c.19-.69.51-1.37.94-2.01,2.11-3.06,6.4-3.54,9.36-1.67l.06.04ZM165.25,168.45c14.42-6.34,35.24-18.44,45.44-38.43,10.24-20.07,7.82-44.01,4.48-59.38l-49.92,97.8Z"></path>
      </g>
      <g>
        <path class="cls-2" d="M278.64,336.4H28.95c-7.96,0-15.46-3.5-20.58-9.59-5.19-6.18-7.36-14.31-5.95-22.29,12.92-73.55,76.58-126.94,151.38-126.94s138.46,53.39,151.38,126.94c1.4,7.99-.77,16.12-5.96,22.29-5.12,6.09-12.62,9.59-20.58,9.59M153.8,187.81c-69.82,0-129.24,49.82-141.3,118.47-.88,5.01.48,10.09,3.71,13.94,3.16,3.77,7.81,5.93,12.74,5.93h249.7c4.93,0,9.57-2.16,12.74-5.93,3.24-3.86,4.59-8.94,3.71-13.94-12.06-68.65-71.48-118.47-141.3-118.47"></path>
        <path class="cls-2" d="M101.7,242.62c0,3.94-4.76,7.13-10.63,7.13s-10.63-3.19-10.63-7.13,4.76-7.13,10.63-7.13,10.63,3.19,10.63,7.13"></path>
        <path class="cls-2" d="M135.69,218.91c0,3.94-4.76,7.13-10.63,7.13s-10.63-3.19-10.63-7.13,4.76-7.13,10.63-7.13,10.63,3.19,10.63,7.13"></path>
        <path class="cls-2" d="M135.69,259.67c0,3.94-4.76,7.13-10.63,7.13s-10.63-3.19-10.63-7.13,4.76-7.13,10.63-7.13,10.63,3.19,10.63,7.13"></path>
        <path class="cls-2" d="M197.84,218.91c0,3.94-4.76,7.13-10.63,7.13s-10.63-3.19-10.63-7.13,4.76-7.13,10.63-7.13,10.63,3.19,10.63,7.13"></path>
        <path class="cls-2" d="M197.84,259.67c0,3.94-4.76,7.13-10.63,7.13s-10.63-3.19-10.63-7.13,4.76-7.13,10.63-7.13,10.63,3.19,10.63,7.13"></path>
        <path class="cls-2" d="M161.86,238.06c0,3.94-4.76,7.13-10.63,7.13s-10.63-3.19-10.63-7.13,4.76-7.13,10.63-7.13,10.63,3.19,10.63,7.13"></path>
        <path class="cls-2" d="M227.74,238.06c0,3.94-4.76,7.13-10.63,7.13s-10.63-3.19-10.63-7.13,4.76-7.13,10.63-7.13,10.63,3.19,10.63,7.13"></path>
      </g>
    </g>
  </g>
</svg>
