<?xml version="1.0" encoding="UTF-8"?>
<svg xmlns="http://www.w3.org/2000/svg" xmlns:xlink="http://www.w3.org/1999/xlink" id="Layer_2" data-name="Layer 2" viewBox="0 0 307.6 632.53">
  <defs>
    <style>
      .cls-1 {
        fill: none;
      }

      .cls-2 {
        fill: #1d6b15;
      }

      .cls-3 {
        fill: #bd6b2b;
        stroke: #bd6b2b;
        stroke-miterlimit: 10;
        stroke-width: 4px;
      }

      .cls-4 {
        clip-path: url(#clippath);
      }
    </style>
    <clipPath id="clippath">
      <rect class="cls-1" x="69.12" y="25.08" width="169.36" height="157.19" transform="translate(-26.9 61.84) rotate(-20.95)"></rect>
    </clipPath>
  </defs>
  <g id="Layer_1-2" data-name="Layer 1">
    <g>
      <g>
        <path class="cls-2" d="M16.75,439.29H1.96v-70.87h40.6v12.31h-25.81v18.26h24.02v12.31h-24.02v27.99Z"></path>
        <path class="cls-2" d="M87.03,380.03c-2.85,0-5.41.55-7.69,1.64s-4.22,2.68-5.81,4.76c-1.59,2.08-2.8,4.6-3.62,7.54-.83,2.95-1.24,6.3-1.24,10.08,0,4.96.69,9.22,2.08,12.75,1.39,3.54,3.49,6.24,6.3,8.09,2.81,1.85,6.34,2.78,10.57,2.78,3.11,0,6.1-.36,8.98-1.09,2.88-.73,5.77-1.65,8.69-2.78v12.9c-2.98,1.26-6.01,2.17-9.08,2.73-3.08.56-6.5.84-10.27.84-7.54,0-13.75-1.5-18.61-4.52-4.86-3.01-8.47-7.26-10.82-12.75-2.35-5.49-3.52-11.84-3.52-19.06,0-5.36.74-10.27,2.23-14.74s3.69-8.32,6.6-11.56c2.91-3.24,6.48-5.76,10.72-7.54,4.23-1.79,9.13-2.68,14.69-2.68,3.51,0,7.06.38,10.67,1.14,3.61.76,7.03,1.94,10.27,3.52l-4.96,12.11c-2.38-1.12-4.91-2.1-7.59-2.93-2.68-.83-5.54-1.24-8.59-1.24Z"></path>
        <path class="cls-2" d="M168.42,368.42c9.73,0,16.81,1.44,21.24,4.32,4.43,2.88,6.65,7.33,6.65,13.35,0,2.98-.55,5.54-1.64,7.69-1.09,2.15-2.55,3.89-4.37,5.21-1.82,1.32-3.82,2.22-6.01,2.68v.5c2.32.46,4.53,1.29,6.65,2.48,2.12,1.19,3.84,2.91,5.16,5.16,1.32,2.25,1.99,5.23,1.99,8.93,0,4.3-1.06,7.99-3.18,11.07-2.12,3.08-5.11,5.43-8.98,7.05-3.87,1.62-8.52,2.43-13.95,2.43h-26.5v-70.87h22.93ZM169.21,396.8c4.37,0,7.38-.79,9.03-2.38,1.65-1.59,2.48-3.67,2.48-6.25,0-2.71-.98-4.71-2.93-6.01-1.95-1.29-5.05-1.94-9.28-1.94h-7.84v16.58h8.54ZM160.68,408.22v19.06h9.63c4.5,0,7.63-.91,9.38-2.73,1.75-1.82,2.63-4.15,2.63-7,0-1.79-.38-3.37-1.14-4.76-.76-1.39-2.05-2.5-3.87-3.33-1.82-.83-4.32-1.24-7.49-1.24h-9.13Z"></path>
        <path class="cls-2" d="M238.5,439.29h-32.26v-8.54l8.64-3.97v-45.86l-8.64-3.97v-8.54h32.26v8.54l-8.64,3.97v45.86l8.64,3.97v8.54Z"></path>
        <path class="cls-2" d="M277.5,399.48h28.09v36.73c-3.71,1.26-7.56,2.25-11.56,2.98-4,.73-8.55,1.09-13.65,1.09-7.01,0-12.99-1.39-17.92-4.17-4.93-2.78-8.67-6.88-11.22-12.31-2.55-5.43-3.82-12.11-3.82-20.05,0-7.41,1.44-13.83,4.32-19.26,2.88-5.42,7.06-9.63,12.56-12.61,5.49-2.98,12.21-4.47,20.15-4.47,3.77,0,7.48.4,11.12,1.19,3.64.79,6.95,1.85,9.93,3.18l-4.96,12.01c-2.18-1.12-4.67-2.05-7.44-2.78-2.78-.73-5.69-1.09-8.73-1.09-4.37,0-8.16.99-11.37,2.98-3.21,1.99-5.69,4.78-7.44,8.39-1.75,3.61-2.63,7.86-2.63,12.75,0,4.63.63,8.73,1.89,12.31,1.26,3.57,3.24,6.37,5.96,8.39,2.71,2.02,6.25,3.03,10.62,3.03,2.12,0,3.92-.1,5.41-.3s2.86-.43,4.12-.69v-14.79h-13.4v-12.51Z"></path>
      </g>
      <g>
        <path class="cls-2" d="M18.64,540.68H2v-79.72h45.67v13.85h-29.03v20.55h27.02v13.85h-27.02v31.49Z"></path>
        <path class="cls-2" d="M135.32,500.71c0,6.18-.76,11.78-2.29,16.8-1.53,5.02-3.83,9.36-6.92,13.01-3.09,3.65-7.02,6.44-11.78,8.37-4.76,1.93-10.42,2.9-16.97,2.9s-12.11-.97-16.92-2.9c-4.8-1.93-8.75-4.73-11.84-8.37-3.09-3.65-5.4-7.98-6.92-13.01-1.53-5.02-2.29-10.66-2.29-16.92,0-8.26,1.36-15.45,4.08-21.55,2.72-6.1,6.88-10.85,12.51-14.24,5.62-3.39,12.78-5.08,21.49-5.08s15.76,1.69,21.38,5.08c5.62,3.39,9.77,8.15,12.45,14.29,2.68,6.14,4.02,13.34,4.02,21.61ZM77.37,500.71c0,5.51.69,10.27,2.07,14.29,1.38,4.02,3.55,7.09,6.53,9.21,2.98,2.12,6.77,3.18,11.39,3.18s8.62-1.06,11.56-3.18c2.94-2.12,5.08-5.19,6.42-9.21,1.34-4.02,2.01-8.78,2.01-14.29,0-8.34-1.53-14.89-4.58-19.65-3.05-4.76-8.15-7.15-15.3-7.15-4.69,0-8.52,1.08-11.5,3.24-2.98,2.16-5.16,5.23-6.53,9.21-1.38,3.98-2.07,8.77-2.07,14.35Z"></path>
        <path class="cls-2" d="M223.64,500.71c0,6.18-.76,11.78-2.29,16.8-1.53,5.02-3.83,9.36-6.92,13.01-3.09,3.65-7.02,6.44-11.78,8.37-4.76,1.93-10.42,2.9-16.97,2.9s-12.11-.97-16.92-2.9c-4.8-1.93-8.75-4.73-11.84-8.37-3.09-3.65-5.4-7.98-6.92-13.01-1.53-5.02-2.29-10.66-2.29-16.92,0-8.26,1.36-15.45,4.08-21.55,2.72-6.1,6.88-10.85,12.51-14.24,5.62-3.39,12.78-5.08,21.49-5.08s15.76,1.69,21.38,5.08c5.62,3.39,9.77,8.15,12.45,14.29,2.68,6.14,4.02,13.34,4.02,21.61ZM165.69,500.71c0,5.51.69,10.27,2.07,14.29,1.38,4.02,3.55,7.09,6.53,9.21,2.98,2.12,6.77,3.18,11.39,3.18s8.62-1.06,11.56-3.18c2.94-2.12,5.08-5.19,6.42-9.21,1.34-4.02,2.01-8.78,2.01-14.29,0-8.34-1.53-14.89-4.58-19.65-3.05-4.76-8.15-7.15-15.3-7.15-4.69,0-8.52,1.08-11.5,3.24-2.98,2.16-5.16,5.23-6.53,9.21-1.38,3.98-2.07,8.77-2.07,14.35Z"></path>
        <path class="cls-2" d="M305.6,499.48c0,9.16-1.71,16.79-5.14,22.89-3.42,6.11-8.25,10.68-14.46,13.73-6.22,3.05-13.64,4.58-22.28,4.58h-24.34v-79.72h26.35c8.41,0,15.58,1.47,21.49,4.41,5.92,2.94,10.46,7.28,13.62,13.01,3.16,5.73,4.75,12.77,4.75,21.1ZM287.73,500.15c0-5.73-.84-10.46-2.51-14.18-1.67-3.72-4.19-6.49-7.54-8.32-3.35-1.82-7.48-2.74-12.39-2.74h-8.82v51.7h7.15c8.19,0,14.25-2.19,18.2-6.59,3.94-4.39,5.92-11.02,5.92-19.87Z"></path>
      </g>
      <path class="cls-3" d="M266.27,630.53H41.33c-15.78,0-29.44-10.71-33.23-26.02l-2.2-8.93c-1.29-5.22-.12-10.65,3.19-14.88,3.32-4.23,8.3-6.66,13.68-6.66h262.06c5.38,0,10.36,2.43,13.68,6.66,3.31,4.24,4.48,9.66,3.19,14.88l-2.2,8.93c-3.78,15.32-17.44,26.02-33.23,26.02M22.77,584.27c-2.21,0-4.26,1-5.62,2.74-1.36,1.74-1.84,3.97-1.31,6.12l2.2,8.93c2.65,10.74,12.22,18.24,23.29,18.24h224.95c11.06,0,20.64-7.5,23.29-18.24l2.2-8.93c.53-2.14.05-4.38-1.31-6.12-1.37-1.74-3.41-2.74-5.62-2.74H22.77Z"></path>
      <g class="cls-4">
        <path class="cls-2" d="M151.68,187.29c-1.22.47-2.57.58-3.9.28-2.05-.47-50.52-12.03-70.67-49.14-20.15-37.12-3.45-84.06-2.73-86.03.9-2.47,3.16-4.18,5.8-4.39,2.63-.2,5.12,1.17,6.38,3.48l67.99,125.2c.47.55.85,1.2,1.12,1.91,1.33,3.47-.71,7.28-3.92,8.66l-.06.02ZM82.9,72.82c-2.94,15.47-4.74,39.49,5.97,59.21,10.75,19.8,31.86,31.35,46.42,37.29l-52.39-96.5Z"></path>
        <path class="cls-2" d="M142.96,172.23s-.06-.06-.1-.08c-13.61-4.62-41.16-16.51-53.98-40.11-13.41-24.7-7.2-56.15-3.71-69.09,12.75,4.1,42.46,15.96,55.92,40.75,1.76,3.24,3.17,6.59,4.31,10,.25-.6.53-1.18.84-1.77.94-1.82,1.78-3.64,2.56-5.53,1.31-3.15,2.59-6.32,3.82-9.51-20.29-36.77-68.39-48.24-70.43-48.71-3.29-.76-6.64,1.06-7.8,4.23-.72,1.98-17.42,48.92,2.73,86.04,20.15,37.1,68.62,48.67,70.67,49.14,1.34.31,2.69.19,3.9-.27,1.76-.67,3.22-2.08,3.9-3.97.09-.25.44-1.22.94-2.8-5.07-1.44-9.57-5.07-13.56-8.29Z"></path>
        <path class="cls-2" d="M163.4,184.16h0c-5.84,2.24-9.68,3.28-9.84,3.32-3.3.88-6.72-.86-7.97-4.03-.76-1.95-18.49-48.29.82-86.08,14.04-27.46,43.39-41.99,59.63-48.21,5.85-2.24,9.7-3.27,9.86-3.31,3.29-.89,6.72.86,7.97,4.03.76,1.95,18.5,48.28-.82,86.07-14.05,27.46-43.4,42-59.64,48.22M156.1,172.59c.78-.28,1.62-.59,2.51-.93h0c14.46-5.54,40.5-18.33,52.51-41.81,12.85-25.13,6-56.25,2.23-69.12-13.36,4.75-42.26,17.79-55.02,42.72-12.89,25.22-6.03,56.29-2.24,69.13"></path>
        <path class="cls-2" d="M163.4,184.16h0c-5.84,2.24-9.68,3.27-9.84,3.32-2.56.69-5.28-.2-6.94-2.26-1.66-2.06-1.96-4.9-.75-7.25L211.67,49.26c1.21-2.35,3.68-3.76,6.3-3.64,2.63.14,4.94,1.8,5.9,4.26.77,1.95,18.5,48.28-.82,86.07-14.04,27.46-43.39,42-59.64,48.22M215.83,70.55l-50.21,98.21c14.77-6.59,35.26-18.86,45.51-38.91,10.25-20.06,7.97-43.93,4.7-59.3"></path>
      </g>
      <g>
        <path class="cls-3" d="M278.64,336.4H28.95c-7.96,0-15.46-3.5-20.58-9.59-5.19-6.18-7.36-14.31-5.95-22.29,12.92-73.55,76.58-126.94,151.38-126.94s138.46,53.39,151.38,126.94c1.4,7.99-.77,16.12-5.96,22.29-5.12,6.09-12.62,9.59-20.58,9.59M153.8,187.81c-69.82,0-129.24,49.82-141.3,118.47-.88,5.01.48,10.09,3.71,13.94,3.16,3.77,7.81,5.93,12.74,5.93h249.7c4.93,0,9.57-2.16,12.74-5.93,3.24-3.86,4.59-8.94,3.71-13.94-12.06-68.65-71.48-118.47-141.3-118.47"></path>
        <path class="cls-3" d="M101.7,242.62c0,3.94-4.76,7.13-10.63,7.13s-10.63-3.19-10.63-7.13,4.76-7.13,10.63-7.13,10.63,3.19,10.63,7.13"></path>
        <path class="cls-3" d="M135.69,218.91c0,3.94-4.76,7.13-10.63,7.13s-10.63-3.19-10.63-7.13,4.76-7.13,10.63-7.13,10.63,3.19,10.63,7.13"></path>
        <path class="cls-3" d="M135.69,259.67c0,3.94-4.76,7.13-10.63,7.13s-10.63-3.19-10.63-7.13,4.76-7.13,10.63-7.13,10.63,3.19,10.63,7.13"></path>
        <path class="cls-3" d="M197.84,218.91c0,3.94-4.76,7.13-10.63,7.13s-10.63-3.19-10.63-7.13,4.76-7.13,10.63-7.13,10.63,3.19,10.63,7.13"></path>
        <path class="cls-3" d="M197.84,259.67c0,3.94-4.76,7.13-10.63,7.13s-10.63-3.19-10.63-7.13,4.76-7.13,10.63-7.13,10.63,3.19,10.63,7.13"></path>
        <path class="cls-3" d="M161.86,238.06c0,3.94-4.76,7.13-10.63,7.13s-10.63-3.19-10.63-7.13,4.76-7.13,10.63-7.13,10.63,3.19,10.63,7.13"></path>
        <path class="cls-3" d="M227.74,238.06c0,3.94-4.76,7.13-10.63,7.13s-10.63-3.19-10.63-7.13,4.76-7.13,10.63-7.13,10.63,3.19,10.63,7.13"></path>
      </g>
    </g>
  </g>
</svg>
