<?xml version="1.0" encoding="UTF-8" standalone="no" ?>
<!DOCTYPE svg PUBLIC "-//W3C//DTD SVG 1.1//EN" "http://www.w3.org/Graphics/SVG/1.1/DTD/svg11.dtd">
<svg xmlns="http://www.w3.org/2000/svg" xmlns:xlink="http://www.w3.org/1999/xlink" version="1.1" width="1080" height="1080" viewBox="0 0 1080 1080" xml:space="preserve">
<desc>Created with Fabric.js 5.2.4</desc>
<defs>
</defs>
<rect x="0" y="0" width="100%" height="100%" fill="transparent"></rect>
<g transform="matrix(1 0 0 1 540 540)" id="508a602c-579f-48a0-bcd8-be867a6d0d77"  >
<rect style="stroke: none; stroke-width: 1; stroke-dasharray: none; stroke-linecap: butt; stroke-dashoffset: 0; stroke-linejoin: miter; stroke-miterlimit: 4; fill: rgb(255,255,255); fill-rule: nonzero; opacity: 1; visibility: hidden;" vector-effect="non-scaling-stroke"  x="-540" y="-540" rx="0" ry="0" width="1080" height="1080" />
</g>
<g transform="matrix(1 0 0 1 540 540)" id="b7db99f9-45a0-465b-9701-2021cebf51ac"  >
</g>
<g transform="matrix(16.88 0 0 16.88 540.16 540.16)"  >
<path style="stroke: none; stroke-width: 1; stroke-dasharray: none; stroke-linecap: butt; stroke-dashoffset: 0; stroke-linejoin: miter; stroke-miterlimit: 4; fill: rgb(179,126,199); fill-rule: nonzero; opacity: 1;" vector-effect="non-scaling-stroke"  transform=" translate(-32, -32)" d="M 0 0 L 64 0 L 64 64 L 0 64 z" stroke-linecap="round" />
</g>
<g transform="matrix(48.47 0 0 48.47 540 540)"  >
<path style="stroke: none; stroke-width: 1; stroke-dasharray: none; stroke-linecap: butt; stroke-dashoffset: 0; stroke-linejoin: miter; stroke-miterlimit: 4; fill: rgb(255,255,255); fill-rule: nonzero; opacity: 1;"  transform=" translate(-7.5, -8)" d="M 13.5 3 L 12 3 L 12 1.5 C 12 1.2238576250846034 11.776142374915397 1 11.5 1 L 9.5 1 C 9.223857625084603 1 9 1.2238576250846034 9 1.5 L 9 3 L 6 3 L 6 1.5 C 6 1.2238576250846034 5.776142374915397 1 5.5 1 L 3.5 1 C 3.2238576250846034 1 3 1.2238576250846034 3 1.5 L 3 3 L 1.5 3 C 1.2238576250846034 3 1 3.2238576250846034 1 3.5 L 1 14.5 C 1 14.776142374915397 1.2238576250846034 15 1.5 15 L 13.5 15 C 13.776142374915397 15 14 14.776142374915397 14 14.5 L 14 3.5 C 14 3.2238576250846034 13.776142374915397 3 13.5 3 z M 10 2 L 11 2 L 11 4 L 10 4 L 10 2 z M 4 2 L 5 2 L 5 4 L 4 4 L 4 2 z M 4.25 14 L 2 14 L 2 11.75 L 4.25 11.75 L 4.25 14 z M 4.25 11.25 L 2 11.25 L 2 8.75 L 4.25 8.75 L 4.25 11.25 z M 4.25 8.25 L 2 8.25 L 2 6 L 4.25 6 L 4.25 8.25 z M 7.25 14 L 4.75 14 L 4.75 11.75 L 7.25 11.75 L 7.25 14 z M 7.25 11.25 L 4.75 11.25 L 4.75 8.75 L 7.25 8.75 L 7.25 11.25 z M 7.25 8.25 L 4.75 8.25 L 4.75 6 L 7.25 6 L 7.25 8.25 z M 10.25 14 L 7.75 14 L 7.75 11.75 L 10.25 11.75 L 10.25 14 z M 10.25 11.25 L 7.75 11.25 L 7.75 8.75 L 10.25 8.75 L 10.25 11.25 z M 10.25 8.25 L 7.75 8.25 L 7.75 6 L 10.25 6 L 10.25 8.25 z M 13 14 L 10.75 14 L 10.75 11.75 L 13 11.75 L 13 14 z M 13 11.25 L 10.75 11.25 L 10.75 8.75 L 13 8.75 L 13 11.25 z M 13 8.25 L 10.75 8.25 L 10.75 6 L 13 6 L 13 8.25 z" stroke-linecap="round" />
</g>
</svg>